<svg width="156" height="86" viewBox="0 0 156 86" fill="none" xmlns="http://www.w3.org/2000/svg">
<rect width="156" height="16" fill="#0054E9"/>
<rect y="70" width="156" height="16" fill="#0054E9"/>
<path d="M1.892 33.516H6.6L7.26 35.1C7.90533 34.5133 8.50667 34.1027 9.064 33.868C9.65067 33.6333 10.516 33.516 11.66 33.516H15.62C16.852 34.7187 17.82 36.2733 18.524 38.18C19.228 40.0867 19.58 42.184 19.58 44.472C19.58 49.3707 18.1133 53.2133 15.18 56H11.44C9.88533 56 8.65333 55.5893 7.744 54.768V62.6H1.892V33.516ZM7.744 51.38H11.968C13.0533 49.532 13.596 47.288 13.596 44.648C13.596 42.008 13.0387 39.8373 11.924 38.136H7.744V51.38ZM36.1078 56H26.5158C23.5825 53.272 22.1158 49.5467 22.1158 44.824C22.1158 42.448 22.4385 40.38 23.0838 38.62C23.7585 36.86 24.8145 35.1587 26.2518 33.516H36.5478C38.0732 35.276 39.1145 36.992 39.6718 38.664C40.2292 40.3067 40.5078 42.36 40.5078 44.824C40.5078 49.5467 39.0412 53.272 36.1078 56ZM29.6398 51.38H32.9838C34.0398 49.3267 34.5678 46.9947 34.5678 44.384C34.5678 41.7733 34.0252 39.6907 32.9398 38.136H29.6398C28.5838 39.632 28.0558 41.7587 28.0558 44.516C28.0558 47.244 28.5838 49.532 29.6398 51.38ZM43.8776 25.2H55.5816C57.4296 25.816 58.999 26.96 60.2896 28.632C61.6096 30.2747 62.2696 32.2987 62.2696 34.704C62.2696 38.6347 60.715 41.524 57.6056 43.372L62.0496 56H55.8896L52.1496 44.78H49.8176V56H43.8776V25.2ZM49.8176 30.48V39.852H53.6016C54.1003 39.7347 54.643 39.236 55.2296 38.356C55.8456 37.4467 56.1536 36.3907 56.1536 35.188C56.1536 33.9853 55.8896 32.9293 55.3616 32.02C54.863 31.1107 54.3643 30.5973 53.8656 30.48H49.8176ZM77.4868 56H67.8948C64.9614 53.272 63.4948 49.5467 63.4948 44.824C63.4948 42.448 63.8174 40.38 64.4628 38.62C65.1374 36.86 66.1934 35.1587 67.6308 33.516H77.9268C79.4521 35.276 80.4934 36.992 81.0508 38.664C81.6081 40.3067 81.8868 42.36 81.8868 44.824C81.8868 49.5467 80.4201 53.272 77.4868 56ZM71.0188 51.38H74.3628C75.4188 49.3267 75.9468 46.9947 75.9468 44.384C75.9468 41.7733 75.4041 39.6907 74.3188 38.136H71.0188C69.9628 39.632 69.4348 41.7587 69.4348 44.516C69.4348 47.244 69.9628 49.532 71.0188 51.38ZM95.0737 33.516H100.882V51.38H103.962C104.93 49.8253 105.414 47.684 105.414 44.956V33.516H111.266V45.22C111.266 50.1773 109.887 53.7707 107.13 56H103.478C101.219 56 99.3564 55.3253 97.8897 53.976C96.423 55.3253 94.619 56 92.4777 56H88.8257C86.0684 54.064 84.6897 50.4707 84.6897 45.22V33.516H90.5417V45.22C90.5417 47.8307 91.011 49.884 91.9497 51.38H95.0737V33.516ZM124.668 33.516H129.332C130.622 35.1587 131.502 36.8013 131.972 38.444C132.441 40.0867 132.676 42.14 132.676 44.604V56H126.824V44.164C126.824 41.3773 126.442 39.368 125.68 38.136H120.752V56H114.9V33.516H119.476L120.268 35.1C120.913 34.5133 121.514 34.1027 122.072 33.868C122.658 33.6333 123.524 33.516 124.668 33.516ZM149.674 56H140.082C137.149 53.272 135.682 49.5467 135.682 44.824C135.682 42.448 136.005 40.38 136.65 38.62C137.325 36.86 138.381 35.1587 139.818 33.516H150.114C151.64 35.276 152.681 36.992 153.238 38.664C153.796 40.3067 154.074 42.36 154.074 44.824C154.074 49.5467 152.608 53.272 149.674 56ZM143.206 51.38H146.55C147.606 49.3267 148.134 46.9947 148.134 44.384C148.134 41.7733 147.592 39.6907 146.506 38.136H143.206C142.15 39.632 141.622 41.7587 141.622 44.516C141.622 47.244 142.15 49.532 143.206 51.38Z" fill="#0054E9"/>
</svg>
